<svg width="20" height="20" viewBox="0 0 20 20" fill="none" xmlns="http://www.w3.org/2000/svg">
<path fill-rule="evenodd" clip-rule="evenodd" d="M10 1C14.9708 1 19 5.02882 19 10C19 14.9708 14.9712 19 10 19C5.02925 19 1 14.9712 1 10C1 5.02925 5.02882 1 10 1ZM3.7756 10.5294H2.07689C2.19545 12.3213 2.91068 13.9525 4.02569 15.2256L5.22644 14.0249C4.41464 13.0636 3.88738 11.8548 3.7756 10.5294ZM5.22647 5.97513L4.02569 4.77435C2.91068 6.04752 2.19545 7.67871 2.07689 9.47059H3.7756C3.88738 8.14519 4.41464 6.93644 5.22647 5.97513ZM16.2244 9.47059H17.9231C17.8046 7.67871 17.0893 6.04752 15.9743 4.77435L14.7736 5.97513C15.5854 6.93644 16.1126 8.14519 16.2244 9.47059ZM4.81176 10C4.81176 12.8608 7.1392 15.1882 10 15.1882C12.8608 15.1882 15.1882 12.8608 15.1882 10C15.1882 7.1392 12.8608 4.81176 10 4.81176C7.1392 4.81176 4.81176 7.1392 4.81176 10ZM10.5294 3.7756C11.8548 3.88738 13.0636 4.41464 14.0249 5.22647L15.2256 4.02569C13.9525 2.91068 12.3213 2.19545 10.5294 2.07689V3.7756ZM5.97513 5.22647C6.93644 4.41464 8.14519 3.88738 9.47059 3.7756V2.07689C7.67874 2.19545 6.04752 2.91068 4.77435 4.02569L5.97513 5.22647ZM9.47059 16.2244C8.14519 16.1126 6.93644 15.5853 5.97513 14.7735L4.77439 15.9743C6.04752 17.0892 7.67874 17.8045 9.47059 17.9231V16.2244ZM14.0249 14.7736C13.0636 15.5854 11.8548 16.1126 10.5294 16.2244H10.5294V17.9231C12.3213 17.8046 13.9525 17.0893 15.2256 15.9743L14.0249 14.7736ZM16.2244 10.5294C16.1127 11.8548 15.5854 13.0636 14.7736 14.0249L15.9743 15.2256C17.0893 13.9525 17.8046 12.3213 17.9231 10.5294H16.2244ZM8.48316 13.1859C8.90594 13.3823 9.39918 13.4805 9.96288 13.4805C10.4347 13.4805 10.836 13.4222 11.1669 13.3056C11.5039 13.1828 11.7827 13.0294 12.0033 12.8453C12.23 12.6551 12.4107 12.4556 12.5455 12.2469C12.6864 12.0322 12.7906 11.8327 12.858 11.6486C12.9254 11.4584 12.9683 11.3049 12.9867 11.1883L13.0234 11.0042H11.6172L11.5805 11.1239C11.5621 11.2037 11.5223 11.3049 11.461 11.4277C11.3997 11.5443 11.3078 11.6639 11.1853 11.7867C11.0689 11.9033 10.9095 12.0015 10.7073 12.0813C10.5113 12.161 10.2662 12.2009 9.97208 12.2009C9.5493 12.2009 9.19392 12.0935 8.90594 11.8787C8.62408 11.6578 8.40963 11.3786 8.26258 11.041C8.12165 10.6974 8.05119 10.3414 8.05119 9.97322C8.05119 9.605 8.12165 9.25213 8.26258 8.9146C8.40963 8.57707 8.62408 8.3009 8.90594 8.08611C9.19392 7.86518 9.5493 7.75472 9.97208 7.75472C10.2662 7.75472 10.5113 7.79768 10.7073 7.88359C10.9095 7.96337 11.0689 8.06156 11.1853 8.17817C11.3078 8.29477 11.3997 8.41444 11.461 8.53718C11.5223 8.65378 11.5621 8.75504 11.5805 8.84095L11.6172 8.96062H13.0234L12.9867 8.78572C12.9683 8.66298 12.9254 8.50956 12.858 8.32545C12.7906 8.13521 12.6864 7.93576 12.5455 7.7271C12.4107 7.51231 12.23 7.31286 12.0033 7.12875C11.7827 6.93851 11.5039 6.78508 11.1669 6.66848C10.836 6.54574 10.4347 6.48438 9.96288 6.48438C9.39918 6.48438 8.90594 6.58257 8.48316 6.77895C8.06651 6.97533 7.71725 7.24229 7.4354 7.57982C7.15355 7.91121 6.94216 8.28556 6.80123 8.70287C6.66031 9.12018 6.58984 9.54363 6.58984 9.97322C6.58984 10.4089 6.66031 10.8355 6.80123 11.2528C6.94216 11.6701 7.15355 12.0475 7.4354 12.385C7.71725 12.7164 8.06651 12.9834 8.48316 13.1859Z" fill="white"/>
</svg>
