<svg width="20" height="20" viewBox="0 0 20 20" fill="none" xmlns="http://www.w3.org/2000/svg">
<path d="M15.5218 9.32176C16.1106 9.33687 16.576 9.82754 16.5606 10.4182C16.5449 11.0071 16.0549 11.4724 15.466 11.4564C14.8769 11.4413 14.4118 10.9507 14.4266 10.3613C14.4418 9.77198 14.9322 9.30687 15.5218 9.32176ZM5.77753 6.68643C6.16064 6.68643 6.43153 6.95732 6.43153 7.29421V8.31376H7.45086C7.78664 8.31376 8.05753 8.58465 8.05753 8.96776C8.05753 9.34976 7.78664 9.62065 7.45086 9.62065H6.43153V10.6415C6.43153 10.9769 6.16064 11.2478 5.77753 11.2478C5.39442 11.2478 5.12375 10.9769 5.12375 10.6415V9.62065H4.10397C3.76864 9.62065 3.49775 9.34976 3.49775 8.96776C3.49775 8.58465 3.76864 8.31376 4.10397 8.31376H5.12375V7.29421C5.12375 6.95732 5.39442 6.68643 5.77753 6.68643ZM13.746 6.47821C14.3353 6.49421 14.8004 6.98398 14.7855 7.57421C14.7695 8.16332 14.2784 8.62887 13.6895 8.61243C13.1006 8.59754 12.6349 8.10665 12.6502 7.51776C12.6662 6.92821 13.1558 6.46287 13.746 6.47821ZM5.57953 3.57532C3.40264 3.57532 2.22775 4.94332 2.04353 6.62043L1.25797 13.7904C1.07508 15.4667 2.51953 16.4424 3.61553 16.4424C5.76842 16.4424 7.51375 12.9355 8.67797 12.9355H11.3689C12.5333 12.9355 14.2773 16.4424 16.4313 16.4424C17.5273 16.4424 19.0122 15.462 18.7878 13.7904L18.002 6.62043C17.7773 4.94932 16.6431 3.57532 14.4671 3.57532C12.8686 3.57532 12.5238 4.44354 10.7531 4.44354H9.29375C7.52308 4.44354 7.17686 3.57532 5.57953 3.57532Z" fill="white"/>
</svg>
