<svg width="20" height="20" viewBox="0 0 20 20" fill="none" xmlns="http://www.w3.org/2000/svg">
<path d="M9.62881 2.92434C9.76317 2.58975 10.2368 2.58975 10.3712 2.92434L11.9754 6.91922C12.0326 7.06171 12.1664 7.15886 12.3196 7.16925L16.6146 7.46048C16.9744 7.48487 17.1207 7.93534 16.8441 8.16652L13.5404 10.9267C13.4226 11.0252 13.3715 11.1824 13.409 11.3313L14.4593 15.5062C14.5472 15.8558 14.164 16.1342 13.8587 15.9425L10.2127 13.6535C10.0826 13.5719 9.91735 13.5719 9.78732 13.6535L6.14133 15.9425C5.83596 16.1342 5.45277 15.8558 5.54073 15.5061L6.59101 11.3313C6.62847 11.1824 6.5774 11.0252 6.45957 10.9267L3.15594 8.16652C2.87925 7.93534 3.02562 7.48487 3.38535 7.46048L7.68045 7.16925C7.83364 7.15886 7.96736 7.06171 8.02458 6.91922L9.62881 2.92434Z" fill="white"/>
</svg>
