<svg width="28" height="28" viewBox="0 0 28 28" fill="none" xmlns="http://www.w3.org/2000/svg">
<path fill-rule="evenodd" clip-rule="evenodd" d="M4.66663 14C4.67217 11.29 5.62091 8.66659 7.34996 6.57996C7.54799 6.3417 7.64326 6.03454 7.61482 5.72604C7.58638 5.41755 7.43655 5.13298 7.1983 4.93496C6.96004 4.73693 6.65288 4.64165 6.34438 4.6701C6.03589 4.69854 5.75132 4.84837 5.5533 5.08662C3.48214 7.59524 2.34924 10.7468 2.34924 14C2.34924 17.2531 3.48214 20.4047 5.5533 22.9133C5.66299 23.045 5.80035 23.1509 5.95562 23.2235C6.11088 23.2961 6.28023 23.3336 6.45163 23.3333C6.72422 23.3338 6.9884 23.2389 7.1983 23.065C7.31643 22.967 7.41408 22.8467 7.48566 22.711C7.55724 22.5753 7.60133 22.4267 7.61542 22.2739C7.62951 22.1211 7.61332 21.967 7.56776 21.8205C7.52221 21.674 7.4482 21.5378 7.34996 21.42C5.62091 19.3333 4.67217 16.7099 4.66663 14ZM14 16.3333C15.2886 16.3333 16.3333 15.2886 16.3333 14C16.3333 12.7113 15.2886 11.6666 14 11.6666C12.7113 11.6666 11.6666 12.7113 11.6666 14C11.6666 15.2886 12.7113 16.3333 14 16.3333ZM19.6166 9.50296C19.7385 9.61159 19.8362 9.74459 19.9034 9.89334V9.94001C20.6134 11.1838 20.9868 12.5912 20.9868 14.0233C20.9868 15.4555 20.6134 16.8629 19.9034 18.1067C19.7987 18.2787 19.6513 18.4206 19.4754 18.5188C19.2996 18.6169 19.1014 18.6678 18.9001 18.6667C18.6874 18.6633 18.479 18.6072 18.2934 18.5033C18.161 18.4242 18.0457 18.3197 17.954 18.1957C17.8623 18.0717 17.7961 17.9308 17.7592 17.7811C17.7224 17.6314 17.7155 17.4758 17.7391 17.3234C17.7627 17.1711 17.8163 17.0249 17.8967 16.8933C18.4087 16.0066 18.6782 15.0006 18.6782 13.9767C18.6782 12.9527 18.4087 11.9468 17.8967 11.06C17.8007 10.928 17.7335 10.7773 17.6993 10.6176C17.6652 10.458 17.665 10.293 17.6987 10.1333C17.7323 9.97352 17.7991 9.82262 17.8948 9.69033C17.9904 9.55803 18.1127 9.44728 18.2539 9.36523C18.395 9.28318 18.5518 9.23166 18.714 9.214C18.8763 9.19634 19.0405 9.21294 19.196 9.26271C19.3515 9.31249 19.4947 9.39433 19.6166 9.50296ZM9.70672 9.49666C9.57517 9.41622 9.42899 9.36265 9.27661 9.33906C9.12424 9.31546 8.9687 9.32231 8.81898 9.35919C8.66927 9.39608 8.52835 9.46228 8.40438 9.55396C8.28041 9.64564 8.17584 9.76098 8.09672 9.89333C7.38673 11.1371 7.01331 12.5445 7.01331 13.9767C7.01331 15.4088 7.38673 16.8162 8.09672 18.06C8.19553 18.2407 8.34041 18.392 8.51664 18.4985C8.69286 18.6051 8.89415 18.6631 9.10005 18.6667C9.31268 18.6633 9.52115 18.6072 9.70672 18.5033C9.83906 18.4242 9.95441 18.3196 10.0461 18.1957C10.1378 18.0717 10.204 17.9308 10.2409 17.7811C10.2777 17.6313 10.2846 17.4758 10.261 17.3234C10.2374 17.1711 10.1838 17.0249 10.1034 16.8933C9.5914 16.0065 9.32186 15.0006 9.32186 13.9767C9.32186 12.9527 9.5914 11.9468 10.1034 11.06C10.2513 10.7985 10.2926 10.49 10.2187 10.1987C10.1448 9.90752 9.96142 9.65603 9.70672 9.49666ZM22.1042 4.79968C22.2399 4.87115 22.3602 4.96865 22.4583 5.08662C24.5294 7.59524 25.6623 10.7468 25.6623 14C25.6623 17.2531 24.5294 20.4047 22.4583 22.9133C22.3486 23.045 22.2112 23.1509 22.056 23.2235C21.9007 23.2961 21.7313 23.3336 21.56 23.3333C21.2874 23.3338 21.0232 23.2389 20.8133 23.065C20.6952 22.967 20.5975 22.8467 20.5259 22.711C20.4543 22.5753 20.4103 22.4267 20.3962 22.2739C20.3821 22.1211 20.3983 21.967 20.4438 21.8205C20.4894 21.674 20.5634 21.5378 20.6616 21.42C22.3836 19.3306 23.3252 16.7074 23.3252 14C23.3252 11.2925 22.3836 8.66929 20.6616 6.57996C20.4636 6.3417 20.3683 6.03454 20.3968 5.72604C20.4252 5.41755 20.575 5.13298 20.8133 4.93496C21.0515 4.73693 21.3587 4.64165 21.6672 4.6701C21.82 4.68418 21.9684 4.72821 22.1042 4.79968Z" fill="white"/>
</svg>
